<!DOCTYPE svg PUBLIC "-//W3C//DTD SVG 1.1//EN" "http://www.w3.org/Graphics/SVG/1.1/DTD/svg11.dtd">
<!-- Uploaded to: SVG Repo, www.svgrepo.com, Transformed by: SVG Repo Mixer Tools -->
<svg fill="#e0eaf6" height="235px" width="235px" version="1.1" id="Capa_1" xmlns="http://www.w3.org/2000/svg" xmlns:xlink="http://www.w3.org/1999/xlink" viewBox="-6 -6 72.00 72.00" xml:space="preserve" stroke="#e0eaf6" stroke-width="0.0006000000000000001">
<g id="SVGRepo_bgCarrier" stroke-width="0"/>
<g id="SVGRepo_tracerCarrier" stroke-linecap="round" stroke-linejoin="round" stroke="#407ec9" stroke-width="2.88"> <path d="M54,2H6C2.748,2,0,4.748,0,8v33c0,3.252,2.748,6,6,6h28.558l9.702,10.673C44.453,57.885,44.724,58,45,58 c0.121,0,0.243-0.022,0.36-0.067C45.746,57.784,46,57.413,46,57V47h8c3.252,0,6-2.748,6-6V8C60,4.748,57.252,2,54,2z M12,15h15 c0.553,0,1,0.448,1,1s-0.447,1-1,1H12c-0.553,0-1-0.448-1-1S11.447,15,12,15z M46,33H12c-0.553,0-1-0.448-1-1s0.447-1,1-1h34 c0.553,0,1,0.448,1,1S46.553,33,46,33z M46,25H12c-0.553,0-1-0.448-1-1s0.447-1,1-1h34c0.553,0,1,0.448,1,1S46.553,25,46,25z"/> </g>
<g id="SVGRepo_iconCarrier"> <path d="M54,2H6C2.748,2,0,4.748,0,8v33c0,3.252,2.748,6,6,6h28.558l9.702,10.673C44.453,57.885,44.724,58,45,58 c0.121,0,0.243-0.022,0.36-0.067C45.746,57.784,46,57.413,46,57V47h8c3.252,0,6-2.748,6-6V8C60,4.748,57.252,2,54,2z M12,15h15 c0.553,0,1,0.448,1,1s-0.447,1-1,1H12c-0.553,0-1-0.448-1-1S11.447,15,12,15z M46,33H12c-0.553,0-1-0.448-1-1s0.447-1,1-1h34 c0.553,0,1,0.448,1,1S46.553,33,46,33z M46,25H12c-0.553,0-1-0.448-1-1s0.447-1,1-1h34c0.553,0,1,0.448,1,1S46.553,25,46,25z"/> </g>
</svg>